PathFileType	4	(X/Y/Z)	D:\Share\Shared_Data\Ergonomics\Sit To Stand Pertubation\S1\Perturbed_NoHarness.trc
DataRate	CameraRate	NumFrames	NumMarkers	Units	OrigDataRate	OrigDataStartFrame	OrigNumFrames	
100	100	11	18	m	100	5276	231
Frame#	Time	L_ASIS			R_ASIS			R_Pelvis			V_Sacral			L_Pelvis			Clavical			R_Acromium			L_Acromium			Sternum			Torso			R_Thigh_Med			R_Thigh_Lat			R_Thigh			R_Shank_Med			R_Shank_Lat			R_Shank			R_Heel			R_Toe			
		X1	Y1	Z1	X2	Y2	Z2	X3	Y3	Z3	X4	Y4	Z4	X5	Y5	Z5	X6	Y6	Z6	X7	Y7	Z7	X8	Y8	Z8	X9	Y9	Z9	X10	Y10	Z10	X11	Y11	Z11	X12	Y12	Z12	X13	Y13	Z13	X14	Y14	Z14	X15	Y15	Z15	X16	Y16	Z16	X17	Y17	Z17	X18	Y18	Z18	

5276	52.75	0.23929588	0.68348346	-0.084431892	0.20918785	0.68672253	0.11420831	0.13170183	0.72247711	0.14472789	0.019735828	0.69857611	0.0066930013	0.14959953	0.71204608	-0.13224408	0.43613565	0.93781598	0.0046005139	0.42391077	1.0448479	0.14350792	0.36682462	1.0279557	-0.19394923	0.4225332	0.96707678	0.10023051	0.43288687	0.95144275	-0.048740124	0.40508734	0.39767841	0.019126646	0.41682678	0.42093964	0.1392502	0.32935767	0.57538745	0.098443413	0.33992682	0.089227745	0.093676552	0.31951782	0.099817505	0.17456831	0.38043384	0.3023912	0.16789807	0.26397665	0.032612419	0.12827264	0.46889767	0.047328411	0.14316461
5277	52.76	0.24301353	0.69000122	-0.08439238	0.2132813	0.69279272	0.11418108	0.13578026	0.72829382	0.14548372	0.024040993	0.70414197	0.0064146185	0.15333842	0.717815	-0.13280128	0.4365419	0.94785718	0.004354466	0.42288708	1.054282	0.14382416	0.3661579	1.0365457	-0.19431612	0.42310532	0.97666205	0.10012519	0.43327014	0.96118134	-0.049050575	0.40600452	0.3975878	0.019093332	0.41830957	0.42096591	0.13908955	0.33322043	0.57684003	0.098581833	0.33996103	0.089216873	0.093645584	0.31963406	0.099808983	0.17457185	0.3811199	0.30218588	0.16795334	0.2639866	0.032651833	0.12828381	0.46890848	0.047331749	0.14319637
5278	52.77	0.24677614	0.69667194	-0.084359749	0.21742274	0.69896143	0.1141394	0.13989655	0.7341507	0.14618457	0.028400637	0.70976978	0.0060753012	0.1570948	0.7236958	-0.13335269	0.43681274	0.95810693	0.0041340566	0.42169318	1.0638965	0.14412628	0.36536523	1.0453087	-0.19460164	0.42357416	0.98643726	0.10004639	0.43352127	0.97111841	-0.049339207	0.40681247	0.39753439	0.019117666	0.41968997	0.42101791	0.13899361	0.33704388	0.57828156	0.09873925	0.33999155	0.089214951	0.093633537	0.3197308	0.099795822	0.17458728	0.38171994	0.30198712	0.16806876	0.26399628	0.032689507	0.12829509	0.46892346	0.047321022	0.14322757
5279	52.78	0.25058844	0.70347516	-0.084338623	0.2216181	0.70521265	0.11408056	0.14405748	0.74002637	0.14681398	0.032821049	0.71546265	0.00568434	0.1608777	0.7296731	-0.13388263	0.43696106	0.96852472	0.0039400625	0.42034534	1.0736564	0.144414	0.36445856	1.0542216	-0.19480008	0.42394101	0.99637109	0.099995804	0.43364783	0.98122333	-0.04960524	0.40751254	0.39751837	0.019196844	0.42096576	0.42109485	0.13896069	0.34082809	0.57971808	0.098906792	0.34001782	0.089221603	0.093639458	0.3198082	0.099778526	0.17461374	0.38223456	0.30179462	0.16824329	0.26400543	0.032724976	0.12830637	0.46894223	0.047294765	0.14325671
5280	52.79	0.25445341	0.7103924	-0.08433403	0.2258723	0.71153436	0.11400245	0.14826935	0.7459024	0.14735687	0.037307045	0.72122736	0.0052538548	0.16469579	0.7357326	-0.13437395	0.43699927	0.97907147	0.0037716718	0.41886087	1.0835254	0.14468633	0.36344809	1.0632603	-0.19490855	0.42420645	1.0064321	0.099974365	0.43365753	0.99146606	-0.049848858	0.40810458	0.39754007	0.019328619	0.42213287	0.42119666	0.13898923	0.34457288	0.58115839	0.099076744	0.34003928	0.089236763	0.093662613	0.31986627	0.099757736	0.17465089	0.38266315	0.30160922	0.16847588	0.26401382	0.032757862	0.12831761	0.46896426	0.047253094	0.14328297
5281	52.8	0.25837238	0.71740741	-0.084351227	0.23018929	0.7179184	0.11390379	0.15253766	0.75176428	0.14780023	0.041861935	0.72707306	0.0047979431	0.16855707	0.74186255	-0.13480946	0.43693912	0.98971063	0.0036265912	0.41725787	1.0934685	0.14494145	0.36234219	1.072401	-0.19492773	0.42437045	1.0165888	0.099982117	0.4335578	1.0018165	-0.050071259	0.40858704	0.39760016	0.019511206	0.423186	0.42132404	0.13907768	0.3482778	0.58261383	0.099242859	0.34005518	0.089260628	0.093702477	0.31990512	0.0997342	0.17469859	0.38300415	0.30143253	0.16876495	0.2640213	0.032787899	0.12832896	0.46898883	0.047197628	0.14330635
5282	52.81	0.26234512	0.72450555	-0.08439534	0.23457182	0.7243606	0.11378412	0.15686719	0.75760052	0.14813399	0.046487526	0.73300928	0.0043316126	0.17246844	0.74805225	-0.1351734	0.43679129	1.000408	0.0035012527	0.41555453	1.1034512	0.14517686	0.36114755	1.081619	-0.19486218	0.42443283	1.0268103	0.1000183	0.43335623	1.0122457	-0.050274612	0.40895682	0.3976994	0.019743187	0.42411859	0.42147809	0.13922452	0.35194208	0.58409595	0.099400505	0.34006473	0.089293678	0.093758636	0.31992493	0.099708748	0.174757	0.38325494	0.30126724	0.16910831	0.26402771	0.032814991	0.12834073	0.46901477	0.047131279	0.14332744
5283	52.82	0.26637054	0.73167407	-0.084471191	0.23902153	0.73085999	0.11364389	0.16126178	0.76340356	0.14835162	0.051184242	0.73904364	0.0038696518	0.17643541	0.75429285	-0.13545325	0.43656543	1.0111323	0.0033911002	0.41376907	1.1134404	0.14538977	0.35986935	1.0908873	-0.19472055	0.42439413	1.0370659	0.10008128	0.43306033	1.0227252	-0.050462051	0.40920956	0.39783868	0.020023401	0.42492331	0.42166028	0.13942804	0.3555643	0.58561621	0.099546661	0.34006717	0.089336609	0.09383075	0.31992566	0.099682259	0.17482643	0.38341202	0.30111685	0.16950301	0.26403293	0.032839214	0.12835321	0.4690408	0.047057987	0.14334749
5284	52.83	0.27044653	0.73890112	-0.084582916	0.24353867	0.73741821	0.11348431	0.1657243	0.76916882	0.14845091	0.055951324	0.74518085	0.003425612	0.18046162	0.76057672	-0.13564197	0.43626968	1.021855	0.003290931	0.41191913	1.1234056	0.14557741	0.35851172	1.1001766	-0.19451532	0.42425562	1.0473267	0.10016866	0.43267786	1.0332279	-0.050637558	0.40933948	0.39801883	0.020350889	0.42559219	0.42187244	0.1396864	0.35914264	0.58718414	0.099679871	0.34006155	0.089390381	0.093918434	0.31990738	0.099655609	0.17490727	0.38347125	0.30098572	0.16994536	0.2640369	0.032860779	0.12836685	0.46906564	0.046982395	0.1433679
5285	52.84	0.27457062	0.74617566	-0.084733826	0.24812224	0.74403772	0.11330712	0.17025653	0.77489545	0.14843413	0.060787025	0.75142059	0.0030110185	0.18454871	0.7668974	-0.13573959	0.43591119	1.03255	0.0031952643	0.41002158	1.133319	0.14573761	0.35707779	1.1094558	-0.19426225	0.42401999	1.0575649	0.1002774	0.43221692	1.0437274	-0.050805809	0.40933969	0.39824091	0.02072484	0.42611716	0.42211667	0.13999765	0.36267444	0.5888064	0.099799988	0.34004663	0.089456108	0.094021309	0.31986984	0.099629654	0.17499986	0.38342813	0.30087857	0.17043106	0.26403958	0.032880054	0.12838217	0.46908768	0.046909416	0.14339032
5286	52.85	0.27873996	0.75348651	-0.084926132	0.25277	0.75072076	0.11311433	0.17485904	0.78058508	0.14830824	0.065688881	0.75775757	0.0026349044	0.18869606	0.77324866	-0.13575473	0.43549606	1.043194	0.0030987079	0.40809219	1.1431549	0.14586923	0.35557047	1.1186915	-0.19397939	0.42369156	1.0677542	0.10040391	0.43168573	1.0541981	-0.050971989	0.40920251	0.39850568	0.021144581	0.42648999	0.42239508	0.14035954	0.36615634	0.59048627	0.099907982	0.34002121	0.089535103	0.094138855	0.3198129	0.099605232	0.17510454	0.38327789	0.30080045	0.17095537	0.26404083	0.032897511	0.1283997	0.46910565	0.046843838	0.1434162
